<svg xmlns="http://www.w3.org/2000/svg" xmlns:xlink="http://www.w3.org/1999/xlink" width="223" zoomAndPan="magnify" viewBox="0 0 167.25 58.499998" height="78" preserveAspectRatio="xMidYMid meet" version="1.0"><defs><g/><clipPath id="40496d9ac1"><path d="M 137 34 L 166.167969 34 L 166.167969 37 L 137 37 Z M 137 34 " clip-rule="nonzero"/></clipPath></defs><path stroke-linecap="butt" transform="matrix(0.719985, 0, 0, 0.719985, 2.452937, 35.805341)" fill="none" stroke-linejoin="miter" d="M 0.000261665 0.997378 L 38.15211 0.997378 " stroke="#000000" stroke-width="2" stroke-opacity="1" stroke-miterlimit="4"/><g fill="#000000" fill-opacity="1"><g transform="translate(42.162702, 20.852826)"><g><path d="M 6.421875 0.109375 C 5.597656 0.109375 4.835938 -0.0507812 4.140625 -0.375 C 3.453125 -0.695312 2.863281 -1.148438 2.375 -1.734375 C 1.882812 -2.316406 1.5 -3 1.21875 -3.78125 C 0.945312 -4.570312 0.8125 -5.425781 0.8125 -6.34375 C 0.8125 -7.601562 1.066406 -8.800781 1.578125 -9.9375 C 2.085938 -11.070312 2.773438 -12.078125 3.640625 -12.953125 C 4.515625 -13.835938 5.492188 -14.53125 6.578125 -15.03125 C 7.671875 -15.53125 8.8125 -15.78125 10 -15.78125 C 11.394531 -15.78125 12.53125 -15.46875 13.40625 -14.84375 C 14.28125 -14.21875 14.867188 -13.390625 15.171875 -12.359375 L 12.546875 -10.6875 C 12.347656 -11.46875 11.957031 -12.0625 11.375 -12.46875 C 10.800781 -12.882812 10.125 -13.09375 9.34375 -13.09375 C 8.613281 -13.09375 7.921875 -12.910156 7.265625 -12.546875 C 6.617188 -12.191406 6.046875 -11.710938 5.546875 -11.109375 C 5.046875 -10.503906 4.648438 -9.816406 4.359375 -9.046875 C 4.078125 -8.285156 3.9375 -7.492188 3.9375 -6.671875 C 3.9375 -5.898438 4.066406 -5.207031 4.328125 -4.59375 C 4.585938 -3.976562 4.96875 -3.488281 5.46875 -3.125 C 5.96875 -2.757812 6.566406 -2.578125 7.265625 -2.578125 C 8.015625 -2.578125 8.769531 -2.78125 9.53125 -3.1875 C 10.300781 -3.601562 11.0625 -4.210938 11.8125 -5.015625 L 11.171875 -2.015625 C 10.398438 -1.285156 9.625 -0.75 8.84375 -0.40625 C 8.070312 -0.0625 7.265625 0.109375 6.421875 0.109375 Z M 11.765625 -5.828125 L 8.78125 -5.828125 L 9.265625 -8.0625 L 14.765625 -8.0625 L 13.046875 0 L 10.53125 0 Z M 11.765625 -5.828125 "/></g></g></g><g fill="#000000" fill-opacity="1"><g transform="translate(57.773342, 20.852826)"><g><path d="M 3.546875 -15.671875 L 13.703125 -15.671875 L 13.15625 -13 L 6 -13 L 5.203125 -9.234375 L 11.375 -9.234375 L 10.84375 -6.75 L 4.6875 -6.75 L 3.8125 -2.671875 L 11.15625 -2.671875 L 10.578125 0 L 0.21875 0 Z M 3.546875 -15.671875 "/></g></g></g><g fill="#000000" fill-opacity="1"><g transform="translate(70.756452, 20.852826)"><g><path d="M 5.359375 0.171875 C 4.253906 0.171875 3.1875 -0.00390625 2.15625 -0.359375 C 1.132812 -0.722656 0.257812 -1.222656 -0.46875 -1.859375 L 1.4375 -4.484375 C 1.519531 -4.347656 1.691406 -4.171875 1.953125 -3.953125 C 2.222656 -3.742188 2.5625 -3.53125 2.96875 -3.3125 C 3.382812 -3.101562 3.847656 -2.925781 4.359375 -2.78125 C 4.878906 -2.632812 5.425781 -2.5625 6 -2.5625 C 6.59375 -2.5625 7.082031 -2.640625 7.46875 -2.796875 C 7.863281 -2.953125 8.15625 -3.171875 8.34375 -3.453125 C 8.53125 -3.742188 8.625 -4.078125 8.625 -4.453125 C 8.625 -4.859375 8.476562 -5.175781 8.1875 -5.40625 C 7.90625 -5.644531 7.515625 -5.851562 7.015625 -6.03125 C 6.515625 -6.21875 5.941406 -6.414062 5.296875 -6.625 C 4.554688 -6.863281 3.9375 -7.128906 3.4375 -7.421875 C 2.9375 -7.710938 2.554688 -8.066406 2.296875 -8.484375 C 2.046875 -8.910156 1.921875 -9.414062 1.921875 -10 C 1.921875 -10.914062 2.097656 -11.734375 2.453125 -12.453125 C 2.816406 -13.171875 3.3125 -13.773438 3.9375 -14.265625 C 4.5625 -14.765625 5.269531 -15.140625 6.0625 -15.390625 C 6.863281 -15.648438 7.695312 -15.78125 8.5625 -15.78125 C 9.257812 -15.78125 9.90625 -15.695312 10.5 -15.53125 C 11.09375 -15.375 11.632812 -15.160156 12.125 -14.890625 C 12.625 -14.628906 13.054688 -14.347656 13.421875 -14.046875 L 11.546875 -11.5625 C 11.503906 -11.664062 11.367188 -11.804688 11.140625 -11.984375 C 10.921875 -12.160156 10.640625 -12.328125 10.296875 -12.484375 C 9.960938 -12.648438 9.585938 -12.796875 9.171875 -12.921875 C 8.765625 -13.046875 8.34375 -13.109375 7.90625 -13.109375 C 7.332031 -13.109375 6.84375 -13.019531 6.4375 -12.84375 C 6.03125 -12.664062 5.726562 -12.421875 5.53125 -12.109375 C 5.34375 -11.804688 5.25 -11.441406 5.25 -11.015625 C 5.25 -10.691406 5.363281 -10.421875 5.59375 -10.203125 C 5.820312 -9.984375 6.148438 -9.796875 6.578125 -9.640625 C 7.003906 -9.484375 7.523438 -9.3125 8.140625 -9.125 C 8.921875 -8.894531 9.601562 -8.625 10.1875 -8.3125 C 10.769531 -8.007812 11.222656 -7.625 11.546875 -7.15625 C 11.867188 -6.695312 12.03125 -6.109375 12.03125 -5.390625 C 12.03125 -4.398438 11.84375 -3.550781 11.46875 -2.84375 C 11.09375 -2.132812 10.585938 -1.5625 9.953125 -1.125 C 9.328125 -0.6875 8.617188 -0.359375 7.828125 -0.140625 C 7.035156 0.0664062 6.210938 0.171875 5.359375 0.171875 Z M 5.359375 0.171875 "/></g></g></g><g fill="#000000" fill-opacity="1"><g transform="translate(84.048688, 20.852826)"><g><path d="M 6.375 -13 L 1.671875 -13 L 2.234375 -15.671875 L 14.65625 -15.671875 L 14.078125 -13 L 9.40625 -13 L 6.640625 0 L 3.59375 0 Z M 6.375 -13 "/></g></g></g><g fill="#000000" fill-opacity="1"><g transform="translate(97.34092, 20.852826)"><g><path d="M 7.765625 -15.671875 L 10.484375 -15.671875 L 12.765625 0 L 9.625 0 L 9.140625 -3.90625 L 4.078125 -3.90625 L 1.96875 0 L -1.171875 0 Z M 9.078125 -6.046875 L 8.390625 -12.203125 L 5.03125 -6.046875 Z M 10.9375 -17.40625 C 10.507812 -17.40625 10.160156 -17.488281 9.890625 -17.65625 C 9.628906 -17.820312 9.382812 -17.984375 9.15625 -18.140625 C 8.9375 -18.304688 8.675781 -18.390625 8.375 -18.390625 C 8.0625 -18.390625 7.816406 -18.304688 7.640625 -18.140625 C 7.460938 -17.972656 7.335938 -17.800781 7.265625 -17.625 C 7.191406 -17.445312 7.15625 -17.347656 7.15625 -17.328125 L 5.515625 -17.328125 C 5.546875 -17.460938 5.632812 -17.679688 5.78125 -17.984375 C 5.925781 -18.296875 6.132812 -18.617188 6.40625 -18.953125 C 6.6875 -19.285156 7.007812 -19.566406 7.375 -19.796875 C 7.738281 -20.035156 8.160156 -20.15625 8.640625 -20.15625 C 8.960938 -20.15625 9.226562 -20.101562 9.4375 -20 C 9.65625 -19.894531 9.847656 -19.773438 10.015625 -19.640625 C 10.179688 -19.503906 10.359375 -19.382812 10.546875 -19.28125 C 10.734375 -19.175781 10.941406 -19.125 11.171875 -19.125 C 11.515625 -19.125 11.785156 -19.210938 11.984375 -19.390625 C 12.179688 -19.566406 12.320312 -19.742188 12.40625 -19.921875 C 12.5 -20.097656 12.546875 -20.195312 12.546875 -20.21875 L 14.15625 -20.21875 C 14.125 -20.125 14.035156 -19.925781 13.890625 -19.625 C 13.742188 -19.332031 13.53125 -19.015625 13.25 -18.671875 C 12.96875 -18.328125 12.628906 -18.03125 12.234375 -17.78125 C 11.847656 -17.53125 11.414062 -17.40625 10.9375 -17.40625 Z M 10.9375 -17.40625 "/></g></g></g><g fill="#000000" fill-opacity="1"><g transform="translate(111.803393, 20.852826)"><g><path d="M 6.59375 0.109375 C 5.664062 0.109375 4.84375 -0.0664062 4.125 -0.421875 C 3.40625 -0.773438 2.796875 -1.253906 2.296875 -1.859375 C 1.804688 -2.472656 1.4375 -3.171875 1.1875 -3.953125 C 0.9375 -4.734375 0.8125 -5.550781 0.8125 -6.40625 C 0.8125 -7.34375 0.972656 -8.269531 1.296875 -9.1875 C 1.617188 -10.113281 2.070312 -10.96875 2.65625 -11.75 C 3.238281 -12.539062 3.921875 -13.238281 4.703125 -13.84375 C 5.484375 -14.445312 6.328125 -14.921875 7.234375 -15.265625 C 8.140625 -15.609375 9.078125 -15.78125 10.046875 -15.78125 C 10.960938 -15.78125 11.773438 -15.597656 12.484375 -15.234375 C 13.203125 -14.878906 13.804688 -14.390625 14.296875 -13.765625 C 14.785156 -13.148438 15.148438 -12.453125 15.390625 -11.671875 C 15.640625 -10.898438 15.765625 -10.085938 15.765625 -9.234375 C 15.765625 -8.285156 15.601562 -7.359375 15.28125 -6.453125 C 14.957031 -5.546875 14.503906 -4.695312 13.921875 -3.90625 C 13.347656 -3.113281 12.675781 -2.414062 11.90625 -1.8125 C 11.132812 -1.207031 10.296875 -0.734375 9.390625 -0.390625 C 8.484375 -0.0546875 7.550781 0.109375 6.59375 0.109375 Z M 7.203125 -2.578125 C 8.003906 -2.578125 8.738281 -2.769531 9.40625 -3.15625 C 10.082031 -3.550781 10.664062 -4.066406 11.15625 -4.703125 C 11.65625 -5.335938 12.03125 -6.03125 12.28125 -6.78125 C 12.539062 -7.539062 12.671875 -8.285156 12.671875 -9.015625 C 12.671875 -9.742188 12.546875 -10.410156 12.296875 -11.015625 C 12.054688 -11.628906 11.695312 -12.125 11.21875 -12.5 C 10.75 -12.875 10.144531 -13.0625 9.40625 -13.0625 C 8.59375 -13.0625 7.851562 -12.867188 7.1875 -12.484375 C 6.519531 -12.109375 5.941406 -11.601562 5.453125 -10.96875 C 4.960938 -10.332031 4.582031 -9.632812 4.3125 -8.875 C 4.039062 -8.125 3.90625 -7.378906 3.90625 -6.640625 C 3.90625 -5.921875 4.023438 -5.25 4.265625 -4.625 C 4.515625 -4.007812 4.878906 -3.515625 5.359375 -3.140625 C 5.847656 -2.765625 6.460938 -2.578125 7.203125 -2.578125 Z M 7.203125 -2.578125 "/></g></g></g><g fill="#daa520" fill-opacity="1"><g transform="translate(31.655483, 42.301723)"><g><path d="M 6.421875 0.109375 C 5.597656 0.109375 4.835938 -0.0507812 4.140625 -0.375 C 3.453125 -0.695312 2.863281 -1.148438 2.375 -1.734375 C 1.882812 -2.316406 1.5 -3 1.21875 -3.78125 C 0.945312 -4.570312 0.8125 -5.425781 0.8125 -6.34375 C 0.8125 -7.601562 1.066406 -8.800781 1.578125 -9.9375 C 2.085938 -11.070312 2.773438 -12.078125 3.640625 -12.953125 C 4.515625 -13.835938 5.492188 -14.53125 6.578125 -15.03125 C 7.671875 -15.53125 8.8125 -15.78125 10 -15.78125 C 11.394531 -15.78125 12.53125 -15.46875 13.40625 -14.84375 C 14.28125 -14.21875 14.867188 -13.390625 15.171875 -12.359375 L 12.546875 -10.6875 C 12.347656 -11.46875 11.957031 -12.0625 11.375 -12.46875 C 10.800781 -12.882812 10.125 -13.09375 9.34375 -13.09375 C 8.613281 -13.09375 7.921875 -12.910156 7.265625 -12.546875 C 6.617188 -12.191406 6.046875 -11.710938 5.546875 -11.109375 C 5.046875 -10.503906 4.648438 -9.816406 4.359375 -9.046875 C 4.078125 -8.285156 3.9375 -7.492188 3.9375 -6.671875 C 3.9375 -5.898438 4.066406 -5.207031 4.328125 -4.59375 C 4.585938 -3.976562 4.96875 -3.488281 5.46875 -3.125 C 5.96875 -2.757812 6.566406 -2.578125 7.265625 -2.578125 C 8.015625 -2.578125 8.769531 -2.78125 9.53125 -3.1875 C 10.300781 -3.601562 11.0625 -4.210938 11.8125 -5.015625 L 11.171875 -2.015625 C 10.398438 -1.285156 9.625 -0.75 8.84375 -0.40625 C 8.070312 -0.0625 7.265625 0.109375 6.421875 0.109375 Z M 11.765625 -5.828125 L 8.78125 -5.828125 L 9.265625 -8.0625 L 14.765625 -8.0625 L 13.046875 0 L 10.53125 0 Z M 11.765625 -5.828125 "/></g></g></g><g fill="#daa520" fill-opacity="1"><g transform="translate(47.266123, 42.301723)"><g><path d="M 6.59375 0.109375 C 5.664062 0.109375 4.84375 -0.0664062 4.125 -0.421875 C 3.40625 -0.773438 2.796875 -1.253906 2.296875 -1.859375 C 1.804688 -2.472656 1.4375 -3.171875 1.1875 -3.953125 C 0.9375 -4.734375 0.8125 -5.550781 0.8125 -6.40625 C 0.8125 -7.34375 0.972656 -8.269531 1.296875 -9.1875 C 1.617188 -10.113281 2.070312 -10.96875 2.65625 -11.75 C 3.238281 -12.539062 3.921875 -13.238281 4.703125 -13.84375 C 5.484375 -14.445312 6.328125 -14.921875 7.234375 -15.265625 C 8.140625 -15.609375 9.078125 -15.78125 10.046875 -15.78125 C 10.960938 -15.78125 11.773438 -15.597656 12.484375 -15.234375 C 13.203125 -14.878906 13.804688 -14.390625 14.296875 -13.765625 C 14.785156 -13.148438 15.148438 -12.453125 15.390625 -11.671875 C 15.640625 -10.898438 15.765625 -10.085938 15.765625 -9.234375 C 15.765625 -8.285156 15.601562 -7.359375 15.28125 -6.453125 C 14.957031 -5.546875 14.503906 -4.695312 13.921875 -3.90625 C 13.347656 -3.113281 12.675781 -2.414062 11.90625 -1.8125 C 11.132812 -1.207031 10.296875 -0.734375 9.390625 -0.390625 C 8.484375 -0.0546875 7.550781 0.109375 6.59375 0.109375 Z M 7.203125 -2.578125 C 8.003906 -2.578125 8.738281 -2.769531 9.40625 -3.15625 C 10.082031 -3.550781 10.664062 -4.066406 11.15625 -4.703125 C 11.65625 -5.335938 12.03125 -6.03125 12.28125 -6.78125 C 12.539062 -7.539062 12.671875 -8.285156 12.671875 -9.015625 C 12.671875 -9.742188 12.546875 -10.410156 12.296875 -11.015625 C 12.054688 -11.628906 11.695312 -12.125 11.21875 -12.5 C 10.75 -12.875 10.144531 -13.0625 9.40625 -13.0625 C 8.59375 -13.0625 7.851562 -12.867188 7.1875 -12.484375 C 6.519531 -12.109375 5.941406 -11.601562 5.453125 -10.96875 C 4.960938 -10.332031 4.582031 -9.632812 4.3125 -8.875 C 4.039062 -8.125 3.90625 -7.378906 3.90625 -6.640625 C 3.90625 -5.921875 4.023438 -5.25 4.265625 -4.625 C 4.515625 -4.007812 4.878906 -3.515625 5.359375 -3.140625 C 5.847656 -2.765625 6.460938 -2.578125 7.203125 -2.578125 Z M 7.203125 -2.578125 "/></g></g></g><g fill="#daa520" fill-opacity="1"><g transform="translate(63.583325, 42.301723)"><g><path d="M 6.515625 0.109375 C 5.265625 0.109375 4.257812 -0.125 3.5 -0.59375 C 2.738281 -1.0625 2.1875 -1.691406 1.84375 -2.484375 C 1.507812 -3.285156 1.34375 -4.1875 1.34375 -5.1875 C 1.34375 -5.582031 1.363281 -5.988281 1.40625 -6.40625 C 1.457031 -6.832031 1.535156 -7.257812 1.640625 -7.6875 L 3.328125 -15.671875 L 6.359375 -15.671875 L 4.65625 -7.6875 C 4.582031 -7.34375 4.523438 -7.007812 4.484375 -6.6875 C 4.453125 -6.363281 4.4375 -6.039062 4.4375 -5.71875 C 4.4375 -5.125 4.515625 -4.59375 4.671875 -4.125 C 4.835938 -3.65625 5.113281 -3.28125 5.5 -3 C 5.894531 -2.71875 6.414062 -2.578125 7.0625 -2.578125 C 7.738281 -2.578125 8.332031 -2.71875 8.84375 -3 C 9.351562 -3.289062 9.796875 -3.679688 10.171875 -4.171875 C 10.546875 -4.660156 10.851562 -5.207031 11.09375 -5.8125 C 11.332031 -6.425781 11.523438 -7.050781 11.671875 -7.6875 L 13.375 -15.671875 L 16.40625 -15.671875 L 14.703125 -7.6875 C 14.484375 -6.613281 14.144531 -5.601562 13.6875 -4.65625 C 13.226562 -3.71875 12.660156 -2.890625 11.984375 -2.171875 C 11.304688 -1.460938 10.507812 -0.90625 9.59375 -0.5 C 8.6875 -0.09375 7.660156 0.109375 6.515625 0.109375 Z M 6.515625 0.109375 "/></g></g></g><g fill="#daa520" fill-opacity="1"><g transform="translate(79.70181, 42.301723)"><g><path d="M 0.21875 0 L 3.546875 -15.671875 L 10.171875 -15.671875 C 10.972656 -15.671875 11.648438 -15.460938 12.203125 -15.046875 C 12.765625 -14.640625 13.195312 -14.101562 13.5 -13.4375 C 13.800781 -12.78125 13.953125 -12.082031 13.953125 -11.34375 C 13.953125 -10.769531 13.859375 -10.207031 13.671875 -9.65625 C 13.492188 -9.101562 13.234375 -8.582031 12.890625 -8.09375 C 12.554688 -7.613281 12.160156 -7.179688 11.703125 -6.796875 C 11.253906 -6.410156 10.769531 -6.109375 10.25 -5.890625 L 12.359375 0 L 8.921875 0 L 7.0625 -5.25 L 4.34375 -5.25 L 3.25 0 Z M 8.4375 -7.921875 C 8.738281 -7.921875 9.03125 -8.003906 9.3125 -8.171875 C 9.59375 -8.347656 9.847656 -8.578125 10.078125 -8.859375 C 10.304688 -9.148438 10.484375 -9.484375 10.609375 -9.859375 C 10.742188 -10.234375 10.8125 -10.625 10.8125 -11.03125 C 10.8125 -11.414062 10.75 -11.753906 10.625 -12.046875 C 10.5 -12.347656 10.328125 -12.582031 10.109375 -12.75 C 9.898438 -12.914062 9.664062 -13 9.40625 -13 L 6 -13 L 4.921875 -7.921875 Z M 8.4375 -7.921875 "/></g></g></g><g fill="#daa520" fill-opacity="1"><g transform="translate(94.098042, 42.301723)"><g><path d="M 3.546875 -15.671875 L 6.828125 -15.671875 L 9.1875 -6.75 L 15.359375 -15.671875 L 18.609375 -15.671875 L 15.28125 0 L 12.25 0 L 14.46875 -10.375 L 9.140625 -2.65625 L 7.484375 -2.65625 L 5.453125 -10.375 L 3.25 0 L 0.21875 0 Z M 3.546875 -15.671875 "/></g></g></g><g fill="#daa520" fill-opacity="1"><g transform="translate(112.645334, 42.301723)"><g><path d="M 3.546875 -15.671875 L 13.703125 -15.671875 L 13.15625 -13 L 6 -13 L 5.203125 -9.234375 L 11.375 -9.234375 L 10.84375 -6.75 L 4.6875 -6.75 L 3.8125 -2.671875 L 11.15625 -2.671875 L 10.578125 0 L 0.21875 0 Z M 3.546875 -15.671875 "/></g></g></g><g fill="#daa520" fill-opacity="1"><g transform="translate(125.628442, 42.301723)"><g><path d="M 6.375 -13 L 1.671875 -13 L 2.234375 -15.671875 L 14.65625 -15.671875 L 14.078125 -13 L 9.40625 -13 L 6.640625 0 L 3.59375 0 Z M 6.375 -13 "/></g></g></g><g clip-path="url(#40496d9ac1)"><path stroke-linecap="butt" transform="matrix(0.719985, 0, 0, 0.719985, 138.701233, 34.985887)" fill="none" stroke-linejoin="miter" d="M 0.00262804 1.00161 L 38.149051 1.00161 " stroke="#000000" stroke-width="2" stroke-opacity="1" stroke-miterlimit="4"/></g><g fill="#000000" fill-opacity="1"><g transform="translate(23.00825, 55.479736)"><g><path d="M 1.875 0.0625 C 1.488281 0.0625 1.113281 0 0.75 -0.125 C 0.394531 -0.25 0.09375 -0.421875 -0.15625 -0.640625 L 0.5 -1.5625 C 0.53125 -1.507812 0.59375 -1.445312 0.6875 -1.375 C 0.78125 -1.300781 0.894531 -1.226562 1.03125 -1.15625 C 1.175781 -1.082031 1.335938 -1.019531 1.515625 -0.96875 C 1.703125 -0.914062 1.894531 -0.890625 2.09375 -0.890625 C 2.300781 -0.890625 2.472656 -0.914062 2.609375 -0.96875 C 2.742188 -1.019531 2.84375 -1.097656 2.90625 -1.203125 C 2.96875 -1.304688 3 -1.421875 3 -1.546875 C 3 -1.691406 2.945312 -1.800781 2.84375 -1.875 C 2.75 -1.957031 2.613281 -2.03125 2.4375 -2.09375 C 2.269531 -2.164062 2.070312 -2.238281 1.84375 -2.3125 C 1.582031 -2.382812 1.363281 -2.472656 1.1875 -2.578125 C 1.019531 -2.679688 0.890625 -2.804688 0.796875 -2.953125 C 0.710938 -3.097656 0.671875 -3.273438 0.671875 -3.484375 C 0.671875 -3.796875 0.734375 -4.078125 0.859375 -4.328125 C 0.984375 -4.585938 1.15625 -4.800781 1.375 -4.96875 C 1.59375 -5.144531 1.835938 -5.273438 2.109375 -5.359375 C 2.390625 -5.453125 2.679688 -5.5 2.984375 -5.5 C 3.222656 -5.5 3.445312 -5.46875 3.65625 -5.40625 C 3.863281 -5.351562 4.050781 -5.28125 4.21875 -5.1875 C 4.394531 -5.09375 4.546875 -4.992188 4.671875 -4.890625 L 4.015625 -4.03125 C 4.003906 -4.0625 3.957031 -4.109375 3.875 -4.171875 C 3.800781 -4.234375 3.703125 -4.289062 3.578125 -4.34375 C 3.460938 -4.40625 3.332031 -4.457031 3.1875 -4.5 C 3.050781 -4.539062 2.90625 -4.5625 2.75 -4.5625 C 2.550781 -4.5625 2.378906 -4.53125 2.234375 -4.46875 C 2.097656 -4.40625 1.992188 -4.320312 1.921875 -4.21875 C 1.859375 -4.113281 1.828125 -3.988281 1.828125 -3.84375 C 1.828125 -3.726562 1.863281 -3.628906 1.9375 -3.546875 C 2.019531 -3.472656 2.132812 -3.410156 2.28125 -3.359375 C 2.4375 -3.304688 2.625 -3.242188 2.84375 -3.171875 C 3.113281 -3.097656 3.347656 -3.003906 3.546875 -2.890625 C 3.742188 -2.785156 3.898438 -2.648438 4.015625 -2.484375 C 4.128906 -2.328125 4.1875 -2.125 4.1875 -1.875 C 4.1875 -1.53125 4.117188 -1.234375 3.984375 -0.984375 C 3.859375 -0.742188 3.6875 -0.546875 3.46875 -0.390625 C 3.25 -0.234375 3 -0.117188 2.71875 -0.046875 C 2.445312 0.0234375 2.164062 0.0625 1.875 0.0625 Z M 1.875 0.0625 "/></g></g></g><g fill="#000000" fill-opacity="1"><g transform="translate(27.634014, 55.479736)"><g><path d="M 1.234375 -5.453125 L 2.296875 -5.453125 L 1.125 0 L 0.078125 0 Z M 1.234375 -5.453125 "/></g></g></g><g fill="#000000" fill-opacity="1"><g transform="translate(29.900795, 55.479736)"><g><path d="M 1.875 0.0625 C 1.488281 0.0625 1.113281 0 0.75 -0.125 C 0.394531 -0.25 0.09375 -0.421875 -0.15625 -0.640625 L 0.5 -1.5625 C 0.53125 -1.507812 0.59375 -1.445312 0.6875 -1.375 C 0.78125 -1.300781 0.894531 -1.226562 1.03125 -1.15625 C 1.175781 -1.082031 1.335938 -1.019531 1.515625 -0.96875 C 1.703125 -0.914062 1.894531 -0.890625 2.09375 -0.890625 C 2.300781 -0.890625 2.472656 -0.914062 2.609375 -0.96875 C 2.742188 -1.019531 2.84375 -1.097656 2.90625 -1.203125 C 2.96875 -1.304688 3 -1.421875 3 -1.546875 C 3 -1.691406 2.945312 -1.800781 2.84375 -1.875 C 2.75 -1.957031 2.613281 -2.03125 2.4375 -2.09375 C 2.269531 -2.164062 2.070312 -2.238281 1.84375 -2.3125 C 1.582031 -2.382812 1.363281 -2.472656 1.1875 -2.578125 C 1.019531 -2.679688 0.890625 -2.804688 0.796875 -2.953125 C 0.710938 -3.097656 0.671875 -3.273438 0.671875 -3.484375 C 0.671875 -3.796875 0.734375 -4.078125 0.859375 -4.328125 C 0.984375 -4.585938 1.15625 -4.800781 1.375 -4.96875 C 1.59375 -5.144531 1.835938 -5.273438 2.109375 -5.359375 C 2.390625 -5.453125 2.679688 -5.5 2.984375 -5.5 C 3.222656 -5.5 3.445312 -5.46875 3.65625 -5.40625 C 3.863281 -5.351562 4.050781 -5.28125 4.21875 -5.1875 C 4.394531 -5.09375 4.546875 -4.992188 4.671875 -4.890625 L 4.015625 -4.03125 C 4.003906 -4.0625 3.957031 -4.109375 3.875 -4.171875 C 3.800781 -4.234375 3.703125 -4.289062 3.578125 -4.34375 C 3.460938 -4.40625 3.332031 -4.457031 3.1875 -4.5 C 3.050781 -4.539062 2.90625 -4.5625 2.75 -4.5625 C 2.550781 -4.5625 2.378906 -4.53125 2.234375 -4.46875 C 2.097656 -4.40625 1.992188 -4.320312 1.921875 -4.21875 C 1.859375 -4.113281 1.828125 -3.988281 1.828125 -3.84375 C 1.828125 -3.726562 1.863281 -3.628906 1.9375 -3.546875 C 2.019531 -3.472656 2.132812 -3.410156 2.28125 -3.359375 C 2.4375 -3.304688 2.625 -3.242188 2.84375 -3.171875 C 3.113281 -3.097656 3.347656 -3.003906 3.546875 -2.890625 C 3.742188 -2.785156 3.898438 -2.648438 4.015625 -2.484375 C 4.128906 -2.328125 4.1875 -2.125 4.1875 -1.875 C 4.1875 -1.53125 4.117188 -1.234375 3.984375 -0.984375 C 3.859375 -0.742188 3.6875 -0.546875 3.46875 -0.390625 C 3.25 -0.234375 3 -0.117188 2.71875 -0.046875 C 2.445312 0.0234375 2.164062 0.0625 1.875 0.0625 Z M 1.875 0.0625 "/></g></g></g><g fill="#000000" fill-opacity="1"><g transform="translate(34.526559, 55.479736)"><g><path d="M 2.21875 -4.53125 L 0.578125 -4.53125 L 0.78125 -5.453125 L 5.109375 -5.453125 L 4.90625 -4.53125 L 3.28125 -4.53125 L 2.3125 0 L 1.25 0 Z M 2.21875 -4.53125 "/></g></g></g><g fill="#000000" fill-opacity="1"><g transform="translate(39.152322, 55.479736)"><g><path d="M 1.234375 -5.453125 L 4.78125 -5.453125 L 4.578125 -4.53125 L 2.09375 -4.53125 L 1.8125 -3.21875 L 3.953125 -3.21875 L 3.78125 -2.359375 L 1.625 -2.359375 L 1.328125 -0.9375 L 3.875 -0.9375 L 3.6875 0 L 0.078125 0 Z M 1.234375 -5.453125 "/></g></g></g><g fill="#000000" fill-opacity="1"><g transform="translate(43.670511, 55.479736)"><g><path d="M 1.234375 -5.453125 L 2.375 -5.453125 L 3.203125 -2.359375 L 5.34375 -5.453125 L 6.484375 -5.453125 L 5.3125 0 L 4.265625 0 L 5.03125 -3.609375 L 3.1875 -0.921875 L 2.609375 -0.921875 L 1.90625 -3.609375 L 1.125 0 L 0.078125 0 Z M 1.234375 -5.453125 "/></g></g></g><g fill="#000000" fill-opacity="1"><g transform="translate(50.125064, 55.479736)"><g><path d="M 2.703125 -5.453125 L 3.65625 -5.453125 L 4.4375 0 L 3.359375 0 L 3.1875 -1.359375 L 1.421875 -1.359375 L 0.6875 0 L -0.40625 0 Z M 3.15625 -2.109375 L 2.921875 -4.25 L 1.75 -2.109375 Z M 3.15625 -2.109375 "/></g></g></g><g fill="#000000" fill-opacity="1"><g transform="translate(55.158077, 55.479736)"><g/></g></g><g fill="#000000" fill-opacity="1"><g transform="translate(57.048336, 55.479736)"><g><path d="M 1.234375 -5.453125 L 3.140625 -5.453125 C 3.609375 -5.453125 3.992188 -5.359375 4.296875 -5.171875 C 4.597656 -4.984375 4.820312 -4.726562 4.96875 -4.40625 C 5.125 -4.09375 5.203125 -3.738281 5.203125 -3.34375 C 5.203125 -2.863281 5.117188 -2.421875 4.953125 -2.015625 C 4.796875 -1.609375 4.570312 -1.253906 4.28125 -0.953125 C 3.988281 -0.648438 3.644531 -0.414062 3.25 -0.25 C 2.863281 -0.0820312 2.4375 0 1.96875 0 L 0.078125 0 Z M 2.171875 -0.9375 C 2.460938 -0.9375 2.726562 -0.992188 2.96875 -1.109375 C 3.207031 -1.234375 3.410156 -1.398438 3.578125 -1.609375 C 3.753906 -1.816406 3.882812 -2.054688 3.96875 -2.328125 C 4.0625 -2.609375 4.109375 -2.894531 4.109375 -3.1875 C 4.109375 -3.457031 4.0625 -3.691406 3.96875 -3.890625 C 3.882812 -4.085938 3.753906 -4.242188 3.578125 -4.359375 C 3.410156 -4.472656 3.195312 -4.53125 2.9375 -4.53125 L 2.09375 -4.53125 L 1.328125 -0.9375 Z M 2.171875 -0.9375 "/></g></g></g><g fill="#000000" fill-opacity="1"><g transform="translate(62.442501, 55.479736)"><g><path d="M 1.234375 -5.453125 L 4.78125 -5.453125 L 4.578125 -4.53125 L 2.09375 -4.53125 L 1.8125 -3.21875 L 3.953125 -3.21875 L 3.78125 -2.359375 L 1.625 -2.359375 L 1.328125 -0.9375 L 3.875 -0.9375 L 3.6875 0 L 0.078125 0 Z M 1.234375 -5.453125 "/></g></g></g><g fill="#000000" fill-opacity="1"><g transform="translate(66.960692, 55.479736)"><g/></g></g><g fill="#000000" fill-opacity="1"><g transform="translate(68.850953, 55.479736)"><g><path d="M 2.234375 0.03125 C 1.953125 0.03125 1.6875 -0.0195312 1.4375 -0.125 C 1.195312 -0.238281 0.988281 -0.394531 0.8125 -0.59375 C 0.644531 -0.800781 0.515625 -1.039062 0.421875 -1.3125 C 0.328125 -1.59375 0.28125 -1.890625 0.28125 -2.203125 C 0.28125 -2.648438 0.367188 -3.066406 0.546875 -3.453125 C 0.722656 -3.847656 0.960938 -4.195312 1.265625 -4.5 C 1.566406 -4.8125 1.90625 -5.054688 2.28125 -5.234375 C 2.664062 -5.410156 3.066406 -5.5 3.484375 -5.5 C 3.972656 -5.5 4.367188 -5.390625 4.671875 -5.171875 C 4.972656 -4.953125 5.175781 -4.664062 5.28125 -4.3125 L 4.359375 -3.71875 C 4.296875 -3.988281 4.160156 -4.195312 3.953125 -4.34375 C 3.753906 -4.488281 3.519531 -4.5625 3.25 -4.5625 C 3 -4.5625 2.757812 -4.5 2.53125 -4.375 C 2.300781 -4.25 2.097656 -4.078125 1.921875 -3.859375 C 1.753906 -3.648438 1.617188 -3.410156 1.515625 -3.140625 C 1.421875 -2.878906 1.375 -2.609375 1.375 -2.328125 C 1.375 -2.054688 1.414062 -1.8125 1.5 -1.59375 C 1.59375 -1.382812 1.726562 -1.21875 1.90625 -1.09375 C 2.082031 -0.96875 2.289062 -0.90625 2.53125 -0.90625 C 2.789062 -0.90625 3.050781 -0.972656 3.3125 -1.109375 C 3.582031 -1.253906 3.847656 -1.46875 4.109375 -1.75 L 3.890625 -0.703125 C 3.617188 -0.453125 3.347656 -0.265625 3.078125 -0.140625 C 2.804688 -0.0234375 2.523438 0.03125 2.234375 0.03125 Z M 4.09375 -2.03125 L 3.0625 -2.03125 L 3.234375 -2.8125 L 5.140625 -2.8125 L 4.546875 0 L 3.671875 0 Z M 4.09375 -2.03125 "/></g></g></g><g fill="#000000" fill-opacity="1"><g transform="translate(74.283539, 55.479736)"><g><path d="M 1.234375 -5.453125 L 4.78125 -5.453125 L 4.578125 -4.53125 L 2.09375 -4.53125 L 1.8125 -3.21875 L 3.953125 -3.21875 L 3.78125 -2.359375 L 1.625 -2.359375 L 1.328125 -0.9375 L 3.875 -0.9375 L 3.6875 0 L 0.078125 0 Z M 1.234375 -5.453125 "/></g></g></g><g fill="#000000" fill-opacity="1"><g transform="translate(78.80173, 55.479736)"><g><path d="M 1.875 0.0625 C 1.488281 0.0625 1.113281 0 0.75 -0.125 C 0.394531 -0.25 0.09375 -0.421875 -0.15625 -0.640625 L 0.5 -1.5625 C 0.53125 -1.507812 0.59375 -1.445312 0.6875 -1.375 C 0.78125 -1.300781 0.894531 -1.226562 1.03125 -1.15625 C 1.175781 -1.082031 1.335938 -1.019531 1.515625 -0.96875 C 1.703125 -0.914062 1.894531 -0.890625 2.09375 -0.890625 C 2.300781 -0.890625 2.472656 -0.914062 2.609375 -0.96875 C 2.742188 -1.019531 2.84375 -1.097656 2.90625 -1.203125 C 2.96875 -1.304688 3 -1.421875 3 -1.546875 C 3 -1.691406 2.945312 -1.800781 2.84375 -1.875 C 2.75 -1.957031 2.613281 -2.03125 2.4375 -2.09375 C 2.269531 -2.164062 2.070312 -2.238281 1.84375 -2.3125 C 1.582031 -2.382812 1.363281 -2.472656 1.1875 -2.578125 C 1.019531 -2.679688 0.890625 -2.804688 0.796875 -2.953125 C 0.710938 -3.097656 0.671875 -3.273438 0.671875 -3.484375 C 0.671875 -3.796875 0.734375 -4.078125 0.859375 -4.328125 C 0.984375 -4.585938 1.15625 -4.800781 1.375 -4.96875 C 1.59375 -5.144531 1.835938 -5.273438 2.109375 -5.359375 C 2.390625 -5.453125 2.679688 -5.5 2.984375 -5.5 C 3.222656 -5.5 3.445312 -5.46875 3.65625 -5.40625 C 3.863281 -5.351562 4.050781 -5.28125 4.21875 -5.1875 C 4.394531 -5.09375 4.546875 -4.992188 4.671875 -4.890625 L 4.015625 -4.03125 C 4.003906 -4.0625 3.957031 -4.109375 3.875 -4.171875 C 3.800781 -4.234375 3.703125 -4.289062 3.578125 -4.34375 C 3.460938 -4.40625 3.332031 -4.457031 3.1875 -4.5 C 3.050781 -4.539062 2.90625 -4.5625 2.75 -4.5625 C 2.550781 -4.5625 2.378906 -4.53125 2.234375 -4.46875 C 2.097656 -4.40625 1.992188 -4.320312 1.921875 -4.21875 C 1.859375 -4.113281 1.828125 -3.988281 1.828125 -3.84375 C 1.828125 -3.726562 1.863281 -3.628906 1.9375 -3.546875 C 2.019531 -3.472656 2.132812 -3.410156 2.28125 -3.359375 C 2.4375 -3.304688 2.625 -3.242188 2.84375 -3.171875 C 3.113281 -3.097656 3.347656 -3.003906 3.546875 -2.890625 C 3.742188 -2.785156 3.898438 -2.648438 4.015625 -2.484375 C 4.128906 -2.328125 4.1875 -2.125 4.1875 -1.875 C 4.1875 -1.53125 4.117188 -1.234375 3.984375 -0.984375 C 3.859375 -0.742188 3.6875 -0.546875 3.46875 -0.390625 C 3.25 -0.234375 3 -0.117188 2.71875 -0.046875 C 2.445312 0.0234375 2.164062 0.0625 1.875 0.0625 Z M 1.875 0.0625 "/></g></g></g><g fill="#000000" fill-opacity="1"><g transform="translate(83.427496, 55.479736)"><g><path d="M 2.21875 -4.53125 L 0.578125 -4.53125 L 0.78125 -5.453125 L 5.109375 -5.453125 L 4.90625 -4.53125 L 3.28125 -4.53125 L 2.3125 0 L 1.25 0 Z M 2.21875 -4.53125 "/></g></g></g><g fill="#000000" fill-opacity="1"><g transform="translate(88.053261, 55.479736)"><g><path d="M 2.703125 -5.453125 L 3.65625 -5.453125 L 4.4375 0 L 3.359375 0 L 3.1875 -1.359375 L 1.421875 -1.359375 L 0.6875 0 L -0.40625 0 Z M 3.15625 -2.109375 L 2.921875 -4.25 L 1.75 -2.109375 Z M 3.8125 -6.0625 C 3.65625 -6.0625 3.53125 -6.09375 3.4375 -6.15625 C 3.351562 -6.21875 3.269531 -6.273438 3.1875 -6.328125 C 3.113281 -6.378906 3.019531 -6.40625 2.90625 -6.40625 C 2.800781 -6.40625 2.71875 -6.375 2.65625 -6.3125 C 2.59375 -6.257812 2.546875 -6.203125 2.515625 -6.140625 C 2.492188 -6.078125 2.484375 -6.046875 2.484375 -6.046875 L 1.921875 -6.046875 C 1.929688 -6.085938 1.960938 -6.160156 2.015625 -6.265625 C 2.066406 -6.378906 2.140625 -6.492188 2.234375 -6.609375 C 2.328125 -6.722656 2.4375 -6.820312 2.5625 -6.90625 C 2.695312 -6.988281 2.84375 -7.03125 3 -7.03125 C 3.113281 -7.03125 3.207031 -7.007812 3.28125 -6.96875 C 3.351562 -6.9375 3.421875 -6.894531 3.484375 -6.84375 C 3.546875 -6.789062 3.609375 -6.75 3.671875 -6.71875 C 3.734375 -6.6875 3.804688 -6.671875 3.890625 -6.671875 C 4.003906 -6.671875 4.097656 -6.695312 4.171875 -6.75 C 4.242188 -6.8125 4.289062 -6.875 4.3125 -6.9375 C 4.34375 -7 4.359375 -7.035156 4.359375 -7.046875 L 4.921875 -7.046875 C 4.910156 -7.015625 4.878906 -6.945312 4.828125 -6.84375 C 4.785156 -6.738281 4.710938 -6.625 4.609375 -6.5 C 4.515625 -6.382812 4.398438 -6.28125 4.265625 -6.1875 C 4.128906 -6.101562 3.976562 -6.0625 3.8125 -6.0625 Z M 3.8125 -6.0625 "/></g></g></g><g fill="#000000" fill-opacity="1"><g transform="translate(93.086277, 55.479736)"><g><path d="M 2.296875 0.03125 C 1.972656 0.03125 1.6875 -0.0234375 1.4375 -0.140625 C 1.1875 -0.265625 0.972656 -0.429688 0.796875 -0.640625 C 0.628906 -0.859375 0.5 -1.101562 0.40625 -1.375 C 0.320312 -1.644531 0.28125 -1.929688 0.28125 -2.234375 C 0.28125 -2.554688 0.335938 -2.878906 0.453125 -3.203125 C 0.566406 -3.523438 0.722656 -3.820312 0.921875 -4.09375 C 1.128906 -4.363281 1.367188 -4.601562 1.640625 -4.8125 C 1.910156 -5.03125 2.203125 -5.195312 2.515625 -5.3125 C 2.828125 -5.4375 3.15625 -5.5 3.5 -5.5 C 3.8125 -5.5 4.09375 -5.4375 4.34375 -5.3125 C 4.59375 -5.1875 4.800781 -5.015625 4.96875 -4.796875 C 5.144531 -4.578125 5.273438 -4.332031 5.359375 -4.0625 C 5.441406 -3.789062 5.484375 -3.507812 5.484375 -3.21875 C 5.484375 -2.882812 5.425781 -2.5625 5.3125 -2.25 C 5.207031 -1.9375 5.050781 -1.640625 4.84375 -1.359375 C 4.644531 -1.085938 4.410156 -0.84375 4.140625 -0.625 C 3.878906 -0.414062 3.585938 -0.253906 3.265625 -0.140625 C 2.953125 -0.0234375 2.628906 0.03125 2.296875 0.03125 Z M 2.5 -0.90625 C 2.78125 -0.90625 3.035156 -0.972656 3.265625 -1.109375 C 3.503906 -1.242188 3.707031 -1.421875 3.875 -1.640625 C 4.050781 -1.859375 4.179688 -2.097656 4.265625 -2.359375 C 4.359375 -2.628906 4.40625 -2.890625 4.40625 -3.140625 C 4.40625 -3.390625 4.363281 -3.617188 4.28125 -3.828125 C 4.195312 -4.046875 4.070312 -4.21875 3.90625 -4.34375 C 3.738281 -4.476562 3.53125 -4.546875 3.28125 -4.546875 C 3 -4.546875 2.738281 -4.476562 2.5 -4.34375 C 2.269531 -4.21875 2.066406 -4.039062 1.890625 -3.8125 C 1.722656 -3.59375 1.59375 -3.351562 1.5 -3.09375 C 1.40625 -2.832031 1.359375 -2.570312 1.359375 -2.3125 C 1.359375 -2.0625 1.398438 -1.828125 1.484375 -1.609375 C 1.566406 -1.398438 1.691406 -1.226562 1.859375 -1.09375 C 2.035156 -0.96875 2.25 -0.90625 2.5 -0.90625 Z M 2.5 -0.90625 "/></g></g></g><g fill="#000000" fill-opacity="1"><g transform="translate(98.764751, 55.479736)"><g/></g></g><g fill="#000000" fill-opacity="1"><g transform="translate(100.655012, 55.479736)"><g><path d="M 1.234375 -5.453125 L 2.296875 -5.453125 L 1.125 0 L 0.078125 0 Z M 1.234375 -5.453125 "/></g></g></g><g fill="#000000" fill-opacity="1"><g transform="translate(102.921794, 55.479736)"><g><path d="M 1.234375 -5.453125 L 2.0625 -5.453125 L 3.921875 -1.875 L 4.6875 -5.453125 L 5.734375 -5.453125 L 4.578125 0 L 3.71875 0 L 1.875 -3.5 L 1.125 0 L 0.078125 0 Z M 1.234375 -5.453125 "/></g></g></g><g fill="#000000" fill-opacity="1"><g transform="translate(108.631006, 55.479736)"><g><path d="M 2.21875 -4.53125 L 0.578125 -4.53125 L 0.78125 -5.453125 L 5.109375 -5.453125 L 4.90625 -4.53125 L 3.28125 -4.53125 L 2.3125 0 L 1.25 0 Z M 2.21875 -4.53125 "/></g></g></g><g fill="#000000" fill-opacity="1"><g transform="translate(113.256767, 55.479736)"><g><path d="M 1.234375 -5.453125 L 4.78125 -5.453125 L 4.578125 -4.53125 L 2.09375 -4.53125 L 1.8125 -3.21875 L 3.953125 -3.21875 L 3.78125 -2.359375 L 1.625 -2.359375 L 1.328125 -0.9375 L 3.875 -0.9375 L 3.6875 0 L 0.078125 0 Z M 1.234375 -5.453125 "/></g></g></g><g fill="#000000" fill-opacity="1"><g transform="translate(117.774953, 55.479736)"><g><path d="M 2.234375 0.03125 C 1.953125 0.03125 1.6875 -0.0195312 1.4375 -0.125 C 1.195312 -0.238281 0.988281 -0.394531 0.8125 -0.59375 C 0.644531 -0.800781 0.515625 -1.039062 0.421875 -1.3125 C 0.328125 -1.59375 0.28125 -1.890625 0.28125 -2.203125 C 0.28125 -2.648438 0.367188 -3.066406 0.546875 -3.453125 C 0.722656 -3.847656 0.960938 -4.195312 1.265625 -4.5 C 1.566406 -4.8125 1.90625 -5.054688 2.28125 -5.234375 C 2.664062 -5.410156 3.066406 -5.5 3.484375 -5.5 C 3.972656 -5.5 4.367188 -5.390625 4.671875 -5.171875 C 4.972656 -4.953125 5.175781 -4.664062 5.28125 -4.3125 L 4.359375 -3.71875 C 4.296875 -3.988281 4.160156 -4.195312 3.953125 -4.34375 C 3.753906 -4.488281 3.519531 -4.5625 3.25 -4.5625 C 3 -4.5625 2.757812 -4.5 2.53125 -4.375 C 2.300781 -4.25 2.097656 -4.078125 1.921875 -3.859375 C 1.753906 -3.648438 1.617188 -3.410156 1.515625 -3.140625 C 1.421875 -2.878906 1.375 -2.609375 1.375 -2.328125 C 1.375 -2.054688 1.414062 -1.8125 1.5 -1.59375 C 1.59375 -1.382812 1.726562 -1.21875 1.90625 -1.09375 C 2.082031 -0.96875 2.289062 -0.90625 2.53125 -0.90625 C 2.789062 -0.90625 3.050781 -0.972656 3.3125 -1.109375 C 3.582031 -1.253906 3.847656 -1.46875 4.109375 -1.75 L 3.890625 -0.703125 C 3.617188 -0.453125 3.347656 -0.265625 3.078125 -0.140625 C 2.804688 -0.0234375 2.523438 0.03125 2.234375 0.03125 Z M 4.09375 -2.03125 L 3.0625 -2.03125 L 3.234375 -2.8125 L 5.140625 -2.8125 L 4.546875 0 L 3.671875 0 Z M 4.09375 -2.03125 "/></g></g></g><g fill="#000000" fill-opacity="1"><g transform="translate(123.207534, 55.479736)"><g><path d="M 0.078125 0 L 1.234375 -5.453125 L 3.546875 -5.453125 C 3.816406 -5.453125 4.050781 -5.378906 4.25 -5.234375 C 4.445312 -5.097656 4.597656 -4.910156 4.703125 -4.671875 C 4.804688 -4.441406 4.859375 -4.203125 4.859375 -3.953125 C 4.859375 -3.753906 4.828125 -3.554688 4.765625 -3.359375 C 4.703125 -3.171875 4.609375 -2.988281 4.484375 -2.8125 C 4.367188 -2.644531 4.234375 -2.492188 4.078125 -2.359375 C 3.921875 -2.234375 3.75 -2.128906 3.5625 -2.046875 L 4.3125 0 L 3.109375 0 L 2.453125 -1.828125 L 1.515625 -1.828125 L 1.125 0 Z M 2.9375 -2.765625 C 3.039062 -2.765625 3.140625 -2.789062 3.234375 -2.84375 C 3.335938 -2.90625 3.425781 -2.984375 3.5 -3.078125 C 3.582031 -3.179688 3.644531 -3.296875 3.6875 -3.421875 C 3.738281 -3.554688 3.765625 -3.695312 3.765625 -3.84375 C 3.765625 -3.976562 3.742188 -4.09375 3.703125 -4.1875 C 3.660156 -4.289062 3.597656 -4.375 3.515625 -4.4375 C 3.441406 -4.5 3.363281 -4.53125 3.28125 -4.53125 L 2.09375 -4.53125 L 1.71875 -2.765625 Z M 2.9375 -2.765625 "/></g></g></g><g fill="#000000" fill-opacity="1"><g transform="translate(128.217496, 55.479736)"><g><path d="M 2.703125 -5.453125 L 3.65625 -5.453125 L 4.4375 0 L 3.359375 0 L 3.1875 -1.359375 L 1.421875 -1.359375 L 0.6875 0 L -0.40625 0 Z M 3.15625 -2.109375 L 2.921875 -4.25 L 1.75 -2.109375 Z M 3.15625 -2.109375 "/></g></g></g><g fill="#000000" fill-opacity="1"><g transform="translate(133.250507, 55.479736)"><g><path d="M 1.234375 -5.453125 L 3.140625 -5.453125 C 3.609375 -5.453125 3.992188 -5.359375 4.296875 -5.171875 C 4.597656 -4.984375 4.820312 -4.726562 4.96875 -4.40625 C 5.125 -4.09375 5.203125 -3.738281 5.203125 -3.34375 C 5.203125 -2.863281 5.117188 -2.421875 4.953125 -2.015625 C 4.796875 -1.609375 4.570312 -1.253906 4.28125 -0.953125 C 3.988281 -0.648438 3.644531 -0.414062 3.25 -0.25 C 2.863281 -0.0820312 2.4375 0 1.96875 0 L 0.078125 0 Z M 2.171875 -0.9375 C 2.460938 -0.9375 2.726562 -0.992188 2.96875 -1.109375 C 3.207031 -1.234375 3.410156 -1.398438 3.578125 -1.609375 C 3.753906 -1.816406 3.882812 -2.054688 3.96875 -2.328125 C 4.0625 -2.609375 4.109375 -2.894531 4.109375 -3.1875 C 4.109375 -3.457031 4.0625 -3.691406 3.96875 -3.890625 C 3.882812 -4.085938 3.753906 -4.242188 3.578125 -4.359375 C 3.410156 -4.472656 3.195312 -4.53125 2.9375 -4.53125 L 2.09375 -4.53125 L 1.328125 -0.9375 Z M 2.171875 -0.9375 "/></g></g></g><g fill="#000000" fill-opacity="1"><g transform="translate(138.644669, 55.479736)"><g><path d="M 2.296875 0.03125 C 1.972656 0.03125 1.6875 -0.0234375 1.4375 -0.140625 C 1.1875 -0.265625 0.972656 -0.429688 0.796875 -0.640625 C 0.628906 -0.859375 0.5 -1.101562 0.40625 -1.375 C 0.320312 -1.644531 0.28125 -1.929688 0.28125 -2.234375 C 0.28125 -2.554688 0.335938 -2.878906 0.453125 -3.203125 C 0.566406 -3.523438 0.722656 -3.820312 0.921875 -4.09375 C 1.128906 -4.363281 1.367188 -4.601562 1.640625 -4.8125 C 1.910156 -5.03125 2.203125 -5.195312 2.515625 -5.3125 C 2.828125 -5.4375 3.15625 -5.5 3.5 -5.5 C 3.8125 -5.5 4.09375 -5.4375 4.34375 -5.3125 C 4.59375 -5.1875 4.800781 -5.015625 4.96875 -4.796875 C 5.144531 -4.578125 5.273438 -4.332031 5.359375 -4.0625 C 5.441406 -3.789062 5.484375 -3.507812 5.484375 -3.21875 C 5.484375 -2.882812 5.425781 -2.5625 5.3125 -2.25 C 5.207031 -1.9375 5.050781 -1.640625 4.84375 -1.359375 C 4.644531 -1.085938 4.410156 -0.84375 4.140625 -0.625 C 3.878906 -0.414062 3.585938 -0.253906 3.265625 -0.140625 C 2.953125 -0.0234375 2.628906 0.03125 2.296875 0.03125 Z M 2.5 -0.90625 C 2.78125 -0.90625 3.035156 -0.972656 3.265625 -1.109375 C 3.503906 -1.242188 3.707031 -1.421875 3.875 -1.640625 C 4.050781 -1.859375 4.179688 -2.097656 4.265625 -2.359375 C 4.359375 -2.628906 4.40625 -2.890625 4.40625 -3.140625 C 4.40625 -3.390625 4.363281 -3.617188 4.28125 -3.828125 C 4.195312 -4.046875 4.070312 -4.21875 3.90625 -4.34375 C 3.738281 -4.476562 3.53125 -4.546875 3.28125 -4.546875 C 3 -4.546875 2.738281 -4.476562 2.5 -4.34375 C 2.269531 -4.21875 2.066406 -4.039062 1.890625 -3.8125 C 1.722656 -3.59375 1.59375 -3.351562 1.5 -3.09375 C 1.40625 -2.832031 1.359375 -2.570312 1.359375 -2.3125 C 1.359375 -2.0625 1.398438 -1.828125 1.484375 -1.609375 C 1.566406 -1.398438 1.691406 -1.226562 1.859375 -1.09375 C 2.035156 -0.96875 2.25 -0.90625 2.5 -0.90625 Z M 2.5 -0.90625 "/></g></g></g><g fill="#000000" fill-opacity="1"><g transform="translate(144.330466, 55.479736)"><g/></g></g></svg>